<svg width="29" height="28" fill="none" xmlns="http://www.w3.org/2000/svg"><ellipse cx="14.5" cy="14" rx="14.5" ry="14" fill="#C1F0C7"/><path d="M12.133 17.71c0-1.04.23-1.9.69-2.58.48-.68 1.17-1.43 2.07-2.25.66-.6 1.14-1.1 1.44-1.5.32-.42.48-.89.48-1.41 0-.74-.3-1.32-.9-1.74-.58-.44-1.36-.66-2.34-.66-.94 0-1.78.2-2.52.6-.72.38-1.33.92-1.83 1.62l-3.63-2.13c.84-1.28 1.97-2.27 3.39-2.97 1.44-.7 3.14-1.05 5.1-1.05 2.3 0 4.14.49 5.52 1.47 1.4.98 2.1 2.34 2.1 4.08 0 .82-.14 1.54-.42 2.16a5.5 5.5 0 01-.99 1.59c-.38.42-.88.91-1.5 1.47-.74.66-1.28 1.22-1.62 1.68-.34.44-.51.98-.51 1.62h-4.53zm2.28 7.53c-.82 0-1.51-.26-2.07-.78-.54-.54-.81-1.19-.81-1.95s.27-1.39.81-1.89c.54-.52 1.23-.78 2.07-.78.84 0 1.53.26 2.07.78.54.5.81 1.13.81 1.89s-.28 1.41-.84 1.95c-.54.52-1.22.78-2.04.78z" fill="#2C7135"/></svg>