<svg width="84" height="81" fill="none" xmlns="http://www.w3.org/2000/svg"><path d="M83.94 75.241l-.003-.048a1.32 1.32 0 00-.062-.302 3048.47 3048.47 0 00-8.157-24.058 827.156 827.156 0 00-2.797-8.012c-.352-.99-.63-1.752-.826-2.266-.087-.233-.16-.412-.216-.551v-3.59c0-.741-.6-1.342-1.34-1.342v-1.43c4.06-.549 6.702-3.609 6.702-7.96 0-2.118-1.207-4.964-3.584-8.458a50.895 50.895 0 00-3.452-4.501 1.34 1.34 0 00-2.014 0 50.876 50.876 0 00-3.453 4.5c-2.377 3.495-3.584 6.34-3.584 8.459 0 4.351 2.643 7.411 6.703 7.96v1.43h-7.71c-.305-2.054-.43-3.837-.337-5.277.002-.015 0-.029.002-.042.002-.013.002-.032.002-.047v-4.024c0-.741-.6-1.342-1.341-1.342H43.727v-2.772c4.06-.548 6.703-3.608 6.703-7.96 0-2.118-1.207-4.963-3.585-8.458a50.903 50.903 0 00-3.452-4.5 1.34 1.34 0 00-2.014 0 50.884 50.884 0 00-3.452 4.5c-2.378 3.495-3.584 6.34-3.584 8.458 0 4.352 2.642 7.412 6.702 7.96v2.772H26.3c-.74 0-1.34.6-1.34 1.342v4.024l.001.047c0 .015 0 .027.002.042.094 1.44-.032 3.223-.337 5.277h-7.71v-1.43c4.06-.549 6.703-3.609 6.703-7.96 0-2.118-1.207-4.964-3.584-8.458a50.895 50.895 0 00-3.453-4.501 1.34 1.34 0 00-2.014 0 50.876 50.876 0 00-3.452 4.5c-2.378 3.495-3.584 6.34-3.584 8.459 0 4.351 2.643 7.411 6.703 7.96v1.432a1.341 1.341 0 00-1.31 1.34v3.59c-.06.139-.13.318-.217.551-.196.514-.474 1.276-.826 2.266a830.134 830.134 0 00-2.797 8.012 3054.96 3054.96 0 00-8.16 24.066 1.32 1.32 0 00-.06.294l-.003.048c-.002.025-.004.05-.004.076v4.024c0 .741.6 1.342 1.34 1.342h80.405c.74 0 1.341-.6 1.341-1.342v-4.024l-.003-.076zm-20.105-49.56c0-2.72 3.273-7.376 5.36-9.977.616.77 1.442 1.846 2.262 3.052 2 2.945 3.103 5.405 3.103 6.926 0 2.884-1.478 4.77-4.022 5.245v-3.099l1.803-.962a1.342 1.342 0 10-1.26-2.368l-.543.29v-3.13a1.341 1.341 0 10-2.681 0v4.537l-.74-.372a1.341 1.341 0 10-1.2 2.4l1.94.97v1.734c-2.544-.475-4.022-2.361-4.022-5.245zm5.363 12.074v1.341H60.89a65.88 65.88 0 01-.276-1.34h8.583zM37.024 13.608c0-2.721 3.272-7.376 5.359-9.977.616.77 1.442 1.846 2.262 3.052 2 2.944 3.103 5.404 3.103 6.925 0 2.884-1.478 4.77-4.021 5.245v-3.098l1.803-.963a1.342 1.342 0 10-1.26-2.368l-.543.29v-3.13a1.341 1.341 0 10-2.682 0v4.537l-.74-.372a1.341 1.341 0 10-1.2 2.401l1.94.97v1.733c-2.543-.474-4.021-2.36-4.021-5.245zM27.64 27.023h29.492v1.342H27.64v-1.342zm-.594 9.874l.09-.524c.308-1.76.456-6.222.504-8.008h29.492c.113 8.716 5.498 27.57 11.216 44.634l.327.976H16.097l.327-.976c3.965-11.833 7.785-23.238 9.793-32.023l.83-4.08zm-2.889.858c-.085.438-.177.885-.276 1.341h-8.277v-1.34h8.553zM10.212 25.682c0-2.722 3.273-7.377 5.359-9.978.617.77 1.443 1.846 2.262 3.052 2.001 2.945 3.104 5.405 3.104 6.926 0 2.884-1.478 4.77-4.022 5.245v-3.099l1.803-.962a1.342 1.342 0 10-1.26-2.368l-.543.29v-3.13a1.341 1.341 0 10-2.681 0v4.537l-.74-.372a1.341 1.341 0 10-1.2 2.4l1.94.97v1.734c-2.544-.475-4.022-2.361-4.022-5.245zM12.893 78H3.54v-1.342h9.354V78zm.989-5.853l-.613 1.828H4.062c5.21-15.546 9.736-28.674 11.046-32.195h8.158c-2.09 8.592-5.775 19.595-9.384 30.367zM69.198 78H15.605v-1.342h53.593V78zm1.692-5.853c-3.61-10.772-7.294-21.775-9.384-30.368h8.188c1.31 3.522 5.836 16.652 11.046 32.196h-9.237l-.613-1.828zM81.263 78h-9.384v-1.342h9.384V78z" fill="#2C7135"/></svg>