<svg width="90" height="89" fill="none" xmlns="http://www.w3.org/2000/svg"><path d="M88.433 73.14c-.48-.542-11.902-13.252-25.132-13.252-.9 0-1.766.038-2.617.093 9.16-9.414 8.287-26.277 8.245-26.995l-.074-1.26-1.257-.074c-.64-.042-14.541-.763-24.134 5.953.003-.145.011-.284.011-.43 0-23.22-19.64-36.144-20.476-36.682L22.233 0l-.766.494C20.632 1.031.991 13.956.991 37.175c0 14.817 8.207 21.03 13.871 23.555-2.348 9.562-5.348 17.243-8.377 20.28a4.232 4.232 0 00-1.245 3.01 4.23 4.23 0 001.245 3.01 4.22 4.22 0 003.003 1.249 4.212 4.212 0 003.004-1.248c2.138-2.144 4.12-5.525 5.908-9.716 2.552-1.209 5.29-2.843 8.126-4.776 5.27 1.334 10.313 2.56 17.066 3.245.572 4.344 3.773 12.495 19.71 12.495 13.229 0 24.651-12.71 25.131-13.253l.837-.943-.837-.942zM66.068 34.46h.061c.006 4.066-.576 16.638-7.626 23.703-7.21 7.23-14.38 8.892-19.384 4.59a274.054 274.054 0 006.214-5.479l7.605 2.54.896-2.691-6.107-2.042a373.692 373.692 0 003.602-3.374l7.273 2.43.897-2.691-5.849-1.955a877.87 877.87 0 007.228-7.042l-1.982-2.027a900.427 900.427 0 01-6.45 6.295l.925-6.501-2.804-.402-1.434 10.067a405.356 405.356 0 01-3.325 3.114l-.946-4.742-2.777.558 1.28 6.422a269.054 269.054 0 01-6.146 5.419 9.295 9.295 0 01-1.531-3.812c3.66-3.322 6.664-8.28 7.527-15.41 7.117-6.386 18.871-6.97 22.853-6.97zM3.824 37.174c0-19.131 14.835-31.142 18.41-33.755 3.574 2.613 18.41 14.624 18.41 33.755 0 17.486-12.216 21.552-16.813 22.463.76-3.391 1.429-6.906 1.99-10.46 2.713-4.536 11.175-9.294 11.262-9.343l-1.377-2.481c-.284.157-5.326 2.992-9.142 6.592.338-2.651.616-5.296.828-7.9 3.207-3.72 8.382-7.631 8.435-7.672l-1.698-2.271c-.178.133-3.407 2.57-6.436 5.513.133-2.477.205-4.897.205-7.217 0-1.855-1.197-3.421-2.85-4.003-.165-5.36-1.386-10.314-1.441-10.536l-2.747.687c.012.051 1.187 4.82 1.352 9.862a4.25 4.25 0 00-2.81 3.99c0 .257-.007.52-.008.78-3.013-2.732-6.154-4.718-6.323-4.821l-1.501 2.406c.048.03 4.567 2.886 7.738 6.303-.14 3.68-.435 7.468-.86 11.247-3.682-3.223-8.052-5.676-8.273-5.8L8.8 36.997c.06.033 5.641 3.169 9.223 6.807a165.364 165.364 0 01-2.501 14.105c-5.655-2.66-11.697-8.386-11.697-20.733zm6.665 47.849a1.433 1.433 0 01-2.002 0 1.395 1.395 0 01-.415-1.004c0-.385.145-.732.415-1.004 7.194-7.21 13.746-35.15 13.746-58.617 0-.783.635-1.42 1.416-1.42a1.42 1.42 0 011.417 1.42c0 27.116-7.683 53.714-14.577 60.625zm12.638-22.378c2.905-.344 6.622-1.498 10.086-3.855a12.488 12.488 0 001.822 3.702C29.851 66.798 24.651 70.66 19.966 73.3c1.164-3.258 2.222-6.853 3.161-10.655zm13.795 1.96c1.406 1.28 4.159 3.18 8.056 3.35a12.568 12.568 0 00-1.452 4.962c-5.42-.57-9.71-1.498-13.951-2.543a156.24 156.24 0 007.347-5.769zm26.38 20.834c-9.622 0-15.721-3.48-16.803-9.403 2.79.201 5.868.316 9.355.316 2.233 0 4.646-.05 7.24-.149 2.954 1.617 4.542 5.465 4.557 5.505l2.629-1.056c-.058-.145-1.028-2.524-2.968-4.648 2.33-.129 4.796-.296 7.431-.508l-.226-2.83c-1.507.12-2.951.225-4.355.319 1.953-2.53 2.923-5.382 2.978-5.552l-2.685-.898c-.447 1.342-2.128 5.056-4.61 6.704-2.664.135-5.131.217-7.425.251 2.227-2.637 3.33-5.867 3.393-6.055l-2.685-.9c-.49 1.474-2.335 5.492-5.046 6.964a121.81 121.81 0 01-7.735-.327c.167-2.135.94-3.993 2.287-5.549 2.474-.575 5.274-1.886 8.361-4.314 1.89-.384 4.005-.583 6.306-.583 9.968 0 19.251 8.479 22.114 11.358-2.86 2.879-12.126 11.355-22.114 11.355z" fill="#2C7135"/></svg>