<svg width="78" height="92" fill="none" xmlns="http://www.w3.org/2000/svg"><path d="M12.794 58.023c0-4.472 2.364-8.496 6.04-10.716l-1.012 3.113a1.788 1.788 0 003.4 1.105l2.21-6.8a1.788 1.788 0 00-1.148-2.253l-6.8-2.21a1.788 1.788 0 00-1.105 3.4l2.33.758a16.087 16.087 0 00-7.49 13.603c0 1.464.197 2.913.586 4.308a1.788 1.788 0 103.443-.96 12.482 12.482 0 01-.454-3.348zm21.442 8.767a12.424 12.424 0 01-8.929 3.746 12.45 12.45 0 01-5.625-1.332l2.751-.386a1.788 1.788 0 00-.497-3.54l-7.081.994a1.788 1.788 0 00-1.522 2.02l.995 7.08a1.788 1.788 0 003.54-.498l-.392-2.792a15.987 15.987 0 007.83 2.03c4.352 0 8.429-1.711 11.48-4.817a1.788 1.788 0 00-2.55-2.505zm9.284-10.827l-2.132 1.726a16.076 16.076 0 00-12.06-15.247 1.787 1.787 0 10-.892 3.462 12.504 12.504 0 019.369 11.524l-1.828-2.258a1.787 1.787 0 10-2.779 2.25l4.5 5.557a1.784 1.784 0 002.514.264l5.557-4.5a1.788 1.788 0 00-2.25-2.778zm31.855 4.279a1.788 1.788 0 100-3.576 1.788 1.788 0 000 3.576zM28.54 7.15c-4.09 0-7.418 3.328-7.418 7.419 0 4.09 3.328 7.418 7.419 7.418 4.09 0 7.418-3.328 7.418-7.418S32.631 7.15 28.54 7.15zm0 11.262a3.848 3.848 0 01-3.843-3.843 3.848 3.848 0 013.844-3.844 3.848 3.848 0 013.843 3.844 3.848 3.848 0 01-3.843 3.843z" fill="#2C7135"/><path d="M75.375 52.197a1.79 1.79 0 001.788-1.787V27.35c0-.238-.05-.473-.14-.69l-.004-.011L66.106 1.08A1.783 1.783 0 0064.462 0H12.81c-.72 0-1.37.432-1.648 1.096L.442 26.646a1.782 1.782 0 00-.145.704v62.387c0 .987.8 1.787 1.787 1.787h73.291A1.8 1.8 0 0076.64 91a1.8 1.8 0 00.524-1.263V66.498a1.79 1.79 0 00-1.788-1.788 1.79 1.79 0 00-1.787 1.788V87.95H55.354V29.138h18.234V50.41a1.79 1.79 0 001.787 1.787zM51.78 87.95H3.872V29.138h47.907v58.811zm.607-62.387H4.773L14 3.575h47.766l-9.38 21.987zm3.887 0L64.47 6.344l8.198 19.218H56.273z" fill="#2C7135"/></svg>