<svg width="89" height="88" fill="none" xmlns="http://www.w3.org/2000/svg"><path d="M44.458 11.135c.952 0 1.724-.772 1.724-1.724V1.724a1.724 1.724 0 00-3.447 0V9.41c0 .952.772 1.724 1.723 1.724zm42.133 48.081l-3.045-3.036a5.713 5.713 0 00-4.065-1.678c-.983 0-1.928.245-2.764.703l-5.739-5.73.28-.28c2.328-2.333 2.327-6.123 0-8.447a5.916 5.916 0 00-3-1.623 6.04 6.04 0 00.237-1.677 5.92 5.92 0 00-1.748-4.223 5.918 5.918 0 00-3-1.623 6.01 6.01 0 00.238-1.677 5.921 5.921 0 00-1.75-4.225 5.946 5.946 0 00-2.998-1.619 5.992 5.992 0 00-1.51-5.906 5.984 5.984 0 00-4.865-1.706l-11.37-2.153c-1.735-.329-3.9-.546-5.267.7a3.09 3.09 0 00-.261.27 5.994 5.994 0 00-6.29 1.384 5.93 5.93 0 00-1.746 4.225c0 .577.082 1.14.238 1.677a5.908 5.908 0 00-2.995 1.62 5.922 5.922 0 00-1.752 4.22c0 .578.081 1.143.238 1.682a5.922 5.922 0 00-3 1.617 5.935 5.935 0 00-1.749 4.228c0 1.225.366 2.392 1.044 3.378a5.94 5.94 0 00-2.296 1.429c-2.33 2.326-2.33 6.117.001 8.453l.279.277-5.739 5.728a5.763 5.763 0 00-6.52 1.13L2.63 59.372a5.706 5.706 0 00-1.68 4.066c0 1.539.596 2.983 1.68 4.065l3.802 3.798a1.724 1.724 0 102.437-2.439l-3.803-3.797a2.282 2.282 0 01-.67-1.627c0-.618.239-1.196.67-1.626l3.046-3.038a2.308 2.308 0 012.812-.345 1.715 1.715 0 00.712.61l17.473 17.448a1.717 1.717 0 00.831.84c.37.417.574.95.574 1.52 0 .618-.238 1.195-.67 1.627l-3.044 3.04a2.316 2.316 0 01-3.259.003l-3.802-3.803A1.724 1.724 0 1017.3 82.15l3.806 3.806a5.739 5.739 0 004.062 1.673 5.746 5.746 0 004.066-1.675l3.046-3.042a5.706 5.706 0 001.68-4.066 5.717 5.717 0 00-.873-3.052l6.458-6.451.02-.021c.74-.765 2.8-.622 4.792-.483 1.415.098 2.992.207 4.534.03l7.072 7.064a5.722 5.722 0 00-.702 2.76c0 1.538.596 2.981 1.68 4.064l3.046 3.042a5.713 5.713 0 004.065 1.678 5.712 5.712 0 004.065-1.678l18.475-18.452a5.705 5.705 0 001.68-4.065c0-1.54-.597-2.983-1.682-4.067zM40.85 17.703l7.477 1.416-4.475 4.473c-.692-.332-1.641-.953-2.682-1.949-1.425-1.363-2.444-2.937-2.537-3.918v-.002a1.504 1.504 0 01-.008-.17c.226-.055.824-.115 2.225.15zm-8.738 1.406a2.542 2.542 0 013.216-.305c.56 2.344 2.56 4.47 3.459 5.33.667.638 2.806 2.551 4.966 3.077.292.419.451.918.451 1.445 0 .678-.261 1.313-.737 1.788a2.508 2.508 0 01-1.79.737 2.51 2.51 0 01-1.791-.74h-.001l-7.773-7.76a2.505 2.505 0 01-.735-1.786 2.5 2.5 0 01.735-1.786zm-4.504 7.521a2.507 2.507 0 011.788-.736c.68 0 1.316.262 1.793.739l6.26 6.247c.985.987.985 2.593.003 3.577a2.526 2.526 0 01-1.795.736 2.524 2.524 0 01-1.794-.734l-4.749-4.748-.023-.021-1.485-1.485a2.509 2.509 0 01-.739-1.79 2.5 2.5 0 01.74-1.785zm-4.513 7.52a2.516 2.516 0 011.792-.734c.675 0 1.306.257 1.778.722l4.763 4.761a2.5 2.5 0 01.737 1.785 2.513 2.513 0 01-2.528 2.521c-.68 0-1.318-.262-1.793-.735l-1.727-1.724-.001-.002-3.02-3.016a2.51 2.51 0 01-.74-1.79c0-.677.263-1.312.74-1.788zm-3.002 9.035a2.52 2.52 0 011.794-.739c.68 0 1.316.263 1.793.738l1.729 1.727a2.5 2.5 0 01.737 1.785c0 .678-.262 1.311-.74 1.788a2.51 2.51 0 01-1.79.737c-.68 0-1.316-.262-1.793-.74l-.217-.216-.008-.009-.01-.008-1.493-1.488a2.531 2.531 0 01-.002-3.575zm35.126 19.59a1.724 1.724 0 00-2.437-.002l-1.534 1.532c-1.457 1.457-4.097 1.273-6.65 1.096-2.774-.193-5.64-.391-7.496 1.513l-6.35 6.342-15.876-15.854 5.619-5.608c.928.57 2 .874 3.121.874a5.93 5.93 0 004.226-1.745 5.924 5.924 0 001.752-4.227l-.002-.044h.045c1.6 0 3.1-.618 4.224-1.74a5.924 5.924 0 001.752-4.228l-.001-.044h.045a5.954 5.954 0 005.975-6.013h.047a5.93 5.93 0 004.227-1.746 5.93 5.93 0 001.746-4.225c0-1.12-.304-2.19-.872-3.116l4.925-4.923a2.53 2.53 0 011.294-.689 1.67 1.67 0 00.152-.024c.76-.105 1.56.13 2.142.71.985.987.985 2.594.003 3.577l-1.5 1.494-.015.014-1.727 1.725a1.723 1.723 0 102.436 2.439l1.506-1.504.228-.228a2.539 2.539 0 013.577.01 2.5 2.5 0 01.737 1.784c0 .677-.261 1.311-.74 1.788l-1.509 1.511v.001l-1.727 1.72a1.723 1.723 0 102.432 2.443l1.735-1.728a2.51 2.51 0 011.79-.737c.68 0 1.315.262 1.793.74a2.5 2.5 0 01.737 1.785 2.5 2.5 0 01-.74 1.787l-3.007 3.008a1.724 1.724 0 002.438 2.438l1.474-1.475.026-.023a2.509 2.509 0 011.79-.737c.68 0 1.315.262 1.79.739a2.53 2.53 0 010 3.572l-1.498 1.497-.001.002-.002.001-2.378 2.376a1.724 1.724 0 002.436 2.439l1.163-1.162 5.576 5.569L58.24 73.335l-5.688-5.681a6.775 6.775 0 001.132-.911l1.533-1.531a1.723 1.723 0 00.001-2.438zm28.938 2.134L65.682 83.361a2.29 2.29 0 01-1.629.67 2.288 2.288 0 01-1.629-.67l-3.046-3.043a2.278 2.278 0 01-.67-1.623c0-.617.238-1.194.67-1.625l18.474-18.45a2.287 2.287 0 011.63-.67c.618 0 1.196.238 1.63.67l3.044 3.037a2.28 2.28 0 01.67 1.626 2.28 2.28 0 01-.67 1.627zM21.57 9.682c.336.336.777.503 1.218.503a1.724 1.724 0 001.218-2.944L17.723.974a1.723 1.723 0 10-2.435 2.44l6.28 6.269zm44.558.503c.441 0 .882-.168 1.219-.504l6.276-6.268a1.724 1.724 0 10-2.437-2.44l-6.276 6.27a1.724 1.724 0 001.218 2.942z" fill="#2C7135"/><path d="M11.548 74.143a1.724 1.724 0 00.02 2.438l.005.005a1.72 1.72 0 002.435-.023 1.727 1.727 0 00-.023-2.44 1.724 1.724 0 00-2.437.02zm47.885-13.852a1.725 1.725 0 001.541-2.5 1.724 1.724 0 00-2.315-.763l-.01.004a1.72 1.72 0 00-.758 2.313c.303.6.912.946 1.542.946z" fill="#2C7135"/></svg>