<svg width="90" height="90" fill="none" xmlns="http://www.w3.org/2000/svg"><path d="M87.687 52.088a5.299 5.299 0 00-5.715-3.3c-.88.13-1.746.302-2.599.511a40.179 40.179 0 001.07-9.232 40.078 40.078 0 00-13.73-30.195 1.75 1.75 0 10-2.301 2.636 36.601 36.601 0 017.824 9.618H59.965c-1.067 0-2.057.48-2.719 1.316l-2.943 3.724a8.339 8.339 0 00-1.79 5.15c0 4.578 3.726 8.304 8.305 8.304h6.04a3.73 3.73 0 013.198 1.823l4.931 8.332a27.188 27.188 0 00-11.745 9.78A27.214 27.214 0 0045.96 49.04l-.79-1.91a5.762 5.762 0 00-5.34-3.57h-9.573v-2.948c0-.95.773-1.722 1.723-1.722h4.22a5.853 5.853 0 004.197-1.786 5.803 5.803 0 001.474-5.378 5.803 5.803 0 00-3.722-4.152.391.391 0 01-.277-.358.391.391 0 01.21-.402l3.67-2.105a7.175 7.175 0 003.503-7.256 7.116 7.116 0 00-7.802-6.018l-6.451.687a1.413 1.413 0 01-1.108-.358 1.414 1.414 0 01-.474-1.065V5.178A36.44 36.44 0 0140.377 3.5c3.756 0 7.46.567 11.006 1.685a1.75 1.75 0 001.052-3.337A40.065 40.065 0 0040.377 0C29.675 0 19.613 4.168 12.046 11.735 4.478 19.304.31 29.365.31 40.067c0 10.702 4.167 20.764 11.735 28.331 7.567 7.567 17.629 11.735 28.33 11.735 1.018 0 2.043-.04 3.057-.117 4.905 5.757 12.082 9.25 19.832 9.561.024.001-.023 0 0 0 9.454-.38 17.966-5.492 22.69-13.675 4.212-7.295 4.843-15.974 1.732-23.814zM66.858 37.12h-6.04a4.81 4.81 0 01-4.805-4.805c0-1.076.368-2.135 1.035-2.98l2.933-3.71h13.987a36.542 36.542 0 012.976 14.442c0 2.105-.18 4.192-.532 6.245l-3.344-5.651a7.246 7.246 0 00-6.21-3.54zM41.937 48.47l.208.503a5.298 5.298 0 00-3.35 3.115c-1.937 4.882-2.422 10.09-1.496 15.086l-3.31-1.027a3.454 3.454 0 01-2.442-3.314v-4.098c0-1.819-.696-3.54-1.96-4.846l-2.753-2.844V47.06H39.83c.926 0 1.753.553 2.107 1.408zM25.92 6.481V10.7c0 1.397.595 2.733 1.634 3.667a4.939 4.939 0 003.818 1.236l6.45-.687a3.623 3.623 0 013.974 3.064 3.653 3.653 0 01-1.784 3.694l-3.671 2.105a3.88 3.88 0 00-1.955 3.751 3.88 3.88 0 002.593 3.342c.76.27 1.3.874 1.486 1.658a2.287 2.287 0 01-.589 2.148 2.338 2.338 0 01-1.676.713h-4.22a5.228 5.228 0 00-5.222 5.222v2.948h-.005l-8.35-8.925a1.75 1.75 0 00-1.278-.555h-5.95A6.877 6.877 0 015.1 30.433c2.946-10.775 10.708-19.582 20.82-23.95zm14.457 70.152C20.214 76.634 3.81 60.23 3.81 40.067c0-1.763.128-3.497.37-5.194a10.373 10.373 0 006.996 2.708h5.19l6.969 7.449v6.723c0 .454.176.89.492 1.216l3.245 3.353c.63.65.976 1.508.976 2.413v4.098c0 3.07 1.97 5.746 4.904 6.656l5.408 1.678a27.662 27.662 0 002.601 5.46c-.194.003-.39.007-.584.007zm3.18-2.482c-3.673-6.362-4.223-13.934-1.509-20.773a1.836 1.836 0 011.955-1.128c7.28 1.069 13.562 5.33 17.235 11.694.01.015.018.032.027.047a27.263 27.263 0 00-2.736 12.176l-3.84-6.652 1.333-4.975a1.75 1.75 0 10-3.38-.906l-.428 1.595-1.857-3.216a1.75 1.75 0 10-3.03 1.75l1.837 3.181-1.541-.412a1.75 1.75 0 00-.906 3.38l4.92 1.318 1.967 3.405-2.176-.583a1.75 1.75 0 10-.906 3.38l5.556 1.488 3.924 6.797c-6.885-1.233-12.883-5.398-16.444-11.566zm39.368 0c-3.561 6.168-9.56 10.336-16.446 11.569l3.926-6.8 5.556-1.488a1.75 1.75 0 00-.906-3.38l-2.176.583 1.965-3.405 4.921-1.319a1.75 1.75 0 00-.906-3.38l-1.54.413 1.837-3.182a1.75 1.75 0 10-3.03-1.75l-1.858 3.217-.427-1.595a1.75 1.75 0 10-3.38.905l1.333 4.976-1.966 3.404-.597-2.23a1.75 1.75 0 10-3.38.905l1.503 5.611-3.906 6.765c-2.375-6.58-1.765-13.86 1.796-20.027 3.674-6.363 10.084-10.625 17.364-11.694.086-.012-.085-.018 0-.018.733 0 1.55.453 1.826 1.147 2.715 6.839 2.165 14.41-1.51 20.773z" fill="#2C7135"/><path d="M58.533 8.693a1.75 1.75 0 100-3.5 1.75 1.75 0 000 3.5z" fill="#2C7135"/></svg>